<svg width="497" height="613" viewBox="0 0 497 613" fill="none" xmlns="http://www.w3.org/2000/svg">
<g clip-path="url(#clip0_515_553)">
<path d="M345.113 124.364C310.66 118.188 271.427 114.892 230.568 114.892C193.174 114.892 157.148 117.648 124.906 122.845C124.913 122.289 124.921 121.733 124.943 121.176C125.797 88.8904 137.86 58.2606 158.552 35.8338C179.245 13.407 206.925 0.962341 235.677 1.15967C264.429 1.35699 291.972 14.1807 312.419 36.8898C332.866 59.599 344.594 90.392 345.098 122.687C345.105 123.252 345.113 123.808 345.113 124.364Z" fill="#D57049"/>
<g opacity="0.1">
<path d="M249.449 1.11353C234.157 -1.20687 218.602 0.108264 203.791 4.9737C188.98 9.83913 175.245 18.1463 163.475 29.3568C151.705 40.5673 142.163 54.4309 135.468 70.0492C128.772 85.6675 125.073 102.692 124.61 120.019C124.587 120.575 124.58 121.132 124.573 121.688C134.152 120.144 144.071 118.821 154.255 117.716C155.5 88.8496 165.702 61.3841 183.091 40.0852C200.479 18.7863 223.957 4.9982 249.449 1.11353Z" fill="white"/>
</g>
<path d="M393.281 134.177C377.421 129.347 361.336 125.512 345.098 122.687C318.483 118.054 291.652 115.158 264.739 114.012C253.528 113.497 242.111 113.232 230.568 113.232C221.419 113.232 212.344 113.398 203.395 113.73C177.142 114.601 150.953 117.087 124.942 121.176C105.688 124.155 86.6212 128.497 67.8547 134.177C24.0986 147.767 0 165.981 0 185.457C0 204.933 24.0987 223.147 67.8547 236.737C98.6267 246.301 136.567 252.818 177.907 255.807C194.97 257.052 212.61 257.683 230.568 257.683C248.584 257.683 266.283 257.044 283.399 255.798C321.021 253.067 355.828 247.414 384.959 239.195C385.114 239.145 385.262 239.103 385.417 239.062C387.383 238.514 389.319 237.941 391.233 237.368C391.921 237.153 392.6 236.945 393.281 236.737C393.319 236.72 393.358 236.706 393.399 236.696C394.049 236.497 394.692 236.289 395.335 236.09C396.621 235.675 397.892 235.268 399.141 234.845C399.2 234.828 399.251 234.811 399.303 234.795C400.389 234.43 401.454 234.064 402.51 233.699C403.375 233.392 404.232 233.093 405.082 232.786C405.703 232.562 406.317 232.338 406.922 232.113C407.366 231.947 407.802 231.79 408.23 231.624C408.814 231.408 409.398 231.184 409.974 230.959C410.218 230.868 410.462 230.777 410.699 230.677C411.253 230.47 411.792 230.254 412.332 230.038C412.916 229.805 413.499 229.565 414.076 229.332C414.556 229.141 415.037 228.942 415.509 228.743C415.908 228.568 416.3 228.402 416.699 228.236C417.785 227.78 418.85 227.307 419.899 226.842C420.424 226.601 420.949 226.369 421.466 226.128C421.976 225.895 422.493 225.655 422.996 225.414C423.823 225.024 424.636 224.633 425.434 224.243C425.818 224.044 426.21 223.853 426.587 223.67C426.875 223.521 427.156 223.38 427.444 223.23C427.651 223.131 427.858 223.023 428.058 222.915C428.804 222.533 429.543 222.143 430.267 221.753C433.046 220.258 435.64 218.731 438.049 217.17C453.161 207.449 461.135 196.665 461.135 185.457C461.135 165.981 437.037 147.767 393.281 134.177ZM392.881 235.144C362.073 244.715 324.029 251.232 282.578 254.196C265.722 255.4 248.296 256.023 230.568 256.023C212.898 256.023 195.532 255.408 178.727 254.204C137.21 251.249 99.107 244.732 68.2538 235.144C25.1924 221.761 1.478 204.12 1.478 185.457C1.4804 183.808 1.66414 182.166 2.02503 180.567C5.79364 163.731 28.9761 147.975 68.2538 135.771C86.8784 130.135 105.8 125.818 124.906 122.845C151.072 118.732 177.42 116.238 203.831 115.373C212.64 115.05 221.552 114.889 230.568 114.892C241.956 114.892 253.218 115.149 264.288 115.647C291.358 116.783 318.345 119.693 345.112 124.364C361.21 127.176 377.157 130.984 392.881 135.771C432.152 147.975 455.327 163.723 459.103 180.551C459.47 182.154 459.656 183.802 459.657 185.457C459.657 204.12 435.943 221.761 392.881 235.144Z" fill="#3F3D56"/>
<path d="M460.714 186.213C460.714 197.304 452.577 207.797 438.049 217.17C435.632 218.731 433.031 220.258 430.267 221.753C429.543 222.143 428.804 222.533 428.058 222.915C427.858 223.023 427.651 223.131 427.444 223.23C427.156 223.38 426.875 223.521 426.587 223.67C426.21 223.853 425.818 224.044 425.434 224.243C424.636 224.633 423.823 225.024 422.995 225.414C422.493 225.655 421.975 225.895 421.465 226.128C420.948 226.368 420.424 226.601 419.899 226.842C418.85 227.307 417.785 227.78 416.699 228.236C416.3 228.402 415.908 228.568 415.509 228.743C415.036 228.942 414.556 229.141 414.075 229.332C413.499 229.565 412.915 229.805 412.332 230.038C411.792 230.254 411.253 230.47 410.698 230.677C410.462 230.777 410.218 230.868 409.974 230.959C409.398 231.184 408.814 231.408 408.23 231.624C407.802 231.79 407.366 231.947 406.922 232.113C406.316 232.337 405.703 232.562 405.082 232.786C404.232 233.093 403.375 233.392 402.51 233.699C401.454 234.064 400.389 234.43 399.303 234.795C399.251 234.811 399.199 234.828 399.14 234.845C397.891 235.268 396.621 235.675 395.335 236.09C394.692 236.289 394.049 236.497 393.398 236.696C393.358 236.706 393.318 236.72 393.28 236.737C392.6 236.945 391.92 237.153 391.233 237.368C389.327 237.933 387.383 238.506 385.417 239.062C385.262 239.103 385.114 239.145 384.959 239.195C356.618 247.148 321.849 252.943 283.369 255.74C266.512 256.961 248.939 257.608 230.885 257.608C212.669 257.608 194.947 256.952 177.958 255.707C76.5377 248.277 1.05664 219.984 1.05664 186.213C1.06463 184.158 1.34345 182.116 1.88405 180.152C1.92843 180.293 1.97281 180.426 2.02477 180.567C12.5699 211.683 87.4087 236.829 184.513 242.964C199.389 243.91 214.797 244.4 230.567 244.4C246.404 244.4 261.871 243.902 276.806 242.955C373.83 236.796 448.594 211.641 459.103 180.551C459.28 180.053 459.435 179.555 459.568 179.057C460.318 181.349 460.705 183.771 460.714 186.213Z" fill="#3F3D56"/>
<path d="M67.7434 177.277C55.4444 177.277 42.373 174.304 42.373 168.795C42.373 163.286 55.4445 160.313 67.7434 160.313C80.0423 160.313 93.1137 163.286 93.1137 168.795C93.1137 174.304 80.0423 177.277 67.7434 177.277ZM67.7434 161.973C53.6632 161.973 43.851 165.569 43.851 168.795C43.851 172.021 53.6633 175.616 67.7434 175.616C81.8235 175.616 91.6357 172.021 91.6357 168.795C91.6357 165.569 81.8235 161.973 67.7434 161.973Z" fill="#3F3D56"/>
<path d="M120.213 216.295C107.914 216.295 94.8423 213.323 94.8423 207.813C94.8423 202.304 107.914 199.332 120.213 199.332C132.512 199.332 145.583 202.304 145.583 207.813C145.583 213.323 132.512 216.295 120.213 216.295ZM120.213 200.992C106.132 200.992 96.3203 204.587 96.3203 207.813C96.3203 211.04 106.132 214.635 120.213 214.635C134.293 214.635 144.105 211.04 144.105 207.813C144.105 204.587 134.293 200.992 120.213 200.992Z" fill="#3F3D56"/>
<path d="M392.903 177.277C380.604 177.277 367.533 174.304 367.533 168.795C367.533 163.286 380.604 160.313 392.903 160.313C405.202 160.313 418.273 163.286 418.273 168.795C418.273 174.304 405.202 177.277 392.903 177.277ZM392.903 161.973C378.823 161.973 369.011 165.569 369.011 168.795C369.011 172.021 378.823 175.616 392.903 175.616C406.983 175.616 416.795 172.021 416.795 168.795C416.795 165.569 406.983 161.973 392.903 161.973Z" fill="#3F3D56"/>
<path d="M340.434 216.295C328.135 216.295 315.064 213.323 315.064 207.813C315.064 202.304 328.135 199.332 340.434 199.332C352.733 199.332 365.805 202.304 365.805 207.813C365.805 213.323 352.733 216.295 340.434 216.295ZM340.434 200.992C326.354 200.992 316.542 204.587 316.542 207.813C316.542 211.04 326.354 214.635 340.434 214.635C354.514 214.635 364.327 211.04 364.327 207.813C364.327 204.587 354.514 200.992 340.434 200.992Z" fill="#3F3D56"/>
<path d="M230.323 234.559C218.025 234.559 204.953 231.587 204.953 226.077C204.953 220.568 218.025 217.596 230.323 217.596C242.622 217.596 255.694 220.568 255.694 226.077C255.694 231.587 242.622 234.559 230.323 234.559ZM230.323 219.256C216.243 219.256 206.431 222.851 206.431 226.077C206.431 229.304 216.243 232.899 230.323 232.899C244.404 232.899 254.216 229.304 254.216 226.077C254.216 222.851 244.404 219.256 230.323 219.256Z" fill="#3F3D56"/>
<path d="M249.026 409.043C266.173 409.043 280.073 393.428 280.073 374.166C280.073 354.903 266.173 339.288 249.026 339.288C231.879 339.288 217.979 354.903 217.979 374.166C217.979 393.428 231.879 409.043 249.026 409.043Z" fill="#2F2E41"/>
<path d="M237.22 397.081L222.11 405.581L226.333 415.055L241.444 406.555L237.22 397.081Z" fill="#2F2E41"/>
<path d="M228.325 414.094C229.221 412.567 227.01 409.154 223.386 406.469C219.762 403.785 216.097 402.846 215.201 404.373C214.305 405.9 216.517 409.314 220.141 411.998C223.765 414.682 227.429 415.621 228.325 414.094Z" fill="#2F2E41"/>
<path d="M260.832 397.081L256.609 406.555L271.719 415.056L275.943 405.581L260.832 397.081Z" fill="#2F2E41"/>
<path d="M277.912 411.998C281.536 409.313 283.747 405.9 282.851 404.373C281.955 402.846 278.291 403.785 274.667 406.469C271.042 409.153 268.831 412.567 269.727 414.094C270.623 415.621 274.287 414.682 277.912 411.998Z" fill="#2F2E41"/>
<path d="M246.853 377.555C252.713 377.555 257.464 372.218 257.464 365.634C257.464 359.051 252.713 353.714 246.853 353.714C240.992 353.714 236.242 359.051 236.242 365.634C236.242 372.218 240.992 377.555 246.853 377.555Z" fill="white"/>
<path d="M249.434 363.349C250.809 361.804 250.801 359.29 249.416 357.734C248.031 356.177 245.793 356.168 244.417 357.714C243.042 359.259 243.05 361.773 244.435 363.329C245.82 364.886 248.058 364.894 249.434 363.349Z" fill="#3F3D56"/>
<path d="M273.518 336.222C273.985 323.31 264.079 312.373 251.392 311.794C238.705 311.215 228.042 321.214 227.575 334.126C227.108 347.038 235.927 349.972 248.614 350.551C261.301 351.13 273.051 349.135 273.518 336.222Z" fill="#D57049"/>
<path d="M291.415 392.429C293.457 390.46 290.585 382.939 285.001 375.631C279.416 368.323 273.233 363.996 271.191 365.965C269.149 367.935 272.021 375.455 277.605 382.763C283.19 390.071 289.372 394.398 291.415 392.429Z" fill="#2F2E41"/>
<path d="M220.534 382.763C226.119 375.455 228.99 367.935 226.948 365.965C224.906 363.996 218.723 368.323 213.139 375.631C207.554 382.939 204.683 390.459 206.725 392.429C208.767 394.398 214.95 390.071 220.534 382.763Z" fill="#2F2E41"/>
<path d="M257.553 387.911C257.889 389.984 257.478 392.123 256.411 393.856C255.343 395.589 253.706 396.775 251.86 397.152C250.015 397.53 248.111 397.068 246.568 395.869C245.025 394.669 243.97 392.831 243.634 390.757L243.631 390.742C242.935 386.423 245.908 384.895 249.752 384.113C253.597 383.331 256.857 383.592 257.553 387.911Z" fill="white"/>
<path d="M196.574 411.266C196.182 411.266 195.806 411.091 195.529 410.78C195.251 410.469 195.096 410.046 195.096 409.606V311.645C195.096 311.204 195.251 310.782 195.529 310.471C195.806 310.159 196.182 309.984 196.574 309.984C196.966 309.984 197.342 310.159 197.619 310.471C197.896 310.782 198.052 311.204 198.052 311.645V409.606C198.052 410.046 197.896 410.469 197.619 410.78C197.342 411.091 196.966 411.266 196.574 411.266Z" fill="#CCCCCC"/>
<path d="M174.404 499.265C174.012 499.265 173.636 499.09 173.359 498.779C173.082 498.468 172.926 498.045 172.926 497.605V426.209C172.926 425.769 173.081 425.347 173.359 425.035C173.636 424.724 174.012 424.549 174.404 424.549C174.796 424.549 175.172 424.724 175.449 425.035C175.726 425.347 175.882 425.769 175.882 426.209V497.605C175.882 498.045 175.726 498.468 175.449 498.779C175.172 499.09 174.796 499.265 174.404 499.265Z" fill="#CCCCCC"/>
<path d="M231.307 440.323C230.915 440.323 230.539 440.148 230.262 439.836C229.984 439.525 229.829 439.103 229.829 438.662V340.701C229.829 340.261 229.984 339.838 230.261 339.527C230.539 339.216 230.915 339.041 231.307 339.041C231.699 339.041 232.075 339.216 232.352 339.527C232.629 339.838 232.785 340.261 232.785 340.701V438.662C232.785 439.103 232.629 439.525 232.352 439.836C232.075 440.148 231.699 440.323 231.307 440.323Z" fill="#CCCCCC"/>
<path d="M209.875 510.888C209.483 510.888 209.108 510.713 208.83 510.401C208.553 510.09 208.397 509.668 208.397 509.227V469.379C208.397 468.938 208.553 468.516 208.83 468.205C209.108 467.893 209.483 467.718 209.875 467.718C210.267 467.718 210.643 467.893 210.921 468.205C211.198 468.516 211.353 468.938 211.353 469.379V509.227C211.353 509.668 211.198 510.09 210.921 510.401C210.643 510.713 210.267 510.888 209.875 510.888Z" fill="#CCCCCC"/>
<path d="M240.175 306.664C239.783 306.664 239.407 306.489 239.13 306.177C238.853 305.866 238.697 305.444 238.697 305.003V265.155C238.697 264.714 238.852 264.292 239.13 263.98C239.407 263.669 239.783 263.494 240.175 263.494C240.567 263.494 240.943 263.669 241.22 263.98C241.497 264.292 241.653 264.714 241.653 265.155V305.003C241.653 305.444 241.497 305.866 241.22 306.177C240.943 306.489 240.567 306.664 240.175 306.664Z" fill="#CCCCCC"/>
<path d="M166.275 324.097C165.883 324.097 165.507 323.922 165.23 323.611C164.953 323.3 164.797 322.877 164.797 322.437V282.588C164.797 282.148 164.953 281.726 165.23 281.414C165.507 281.103 165.883 280.928 166.275 280.928C166.667 280.928 167.043 281.103 167.32 281.414C167.597 281.726 167.753 282.148 167.753 282.588V322.437C167.753 322.877 167.597 323.3 167.32 323.611C167.043 323.922 166.667 324.097 166.275 324.097Z" fill="#CCCCCC"/>
<path d="M294.86 328.248C294.468 328.248 294.092 328.073 293.815 327.762C293.538 327.45 293.382 327.028 293.382 326.588V286.739C293.382 286.299 293.538 285.877 293.815 285.565C294.092 285.254 294.468 285.079 294.86 285.079C295.252 285.079 295.628 285.254 295.905 285.565C296.183 285.877 296.338 286.299 296.338 286.739V326.588C296.338 327.028 296.183 327.45 295.905 327.762C295.628 328.073 295.252 328.248 294.86 328.248Z" fill="#CCCCCC"/>
<path d="M291.905 452.775C291.513 452.775 291.137 452.6 290.86 452.289C290.583 451.978 290.427 451.555 290.427 451.115V402.964C290.427 402.524 290.582 402.102 290.86 401.79C291.137 401.479 291.513 401.304 291.905 401.304C292.297 401.304 292.673 401.479 292.95 401.79C293.227 402.102 293.383 402.524 293.383 402.964V451.115C293.383 451.555 293.227 451.978 292.95 452.289C292.673 452.6 292.297 452.775 291.905 452.775Z" fill="#CCCCCC"/>
<path d="M262.345 495.114C261.953 495.114 261.577 494.94 261.3 494.628C261.022 494.317 260.867 493.894 260.867 493.454V422.059C260.867 421.618 261.022 421.196 261.3 420.885C261.577 420.573 261.953 420.398 262.345 420.398C262.737 420.398 263.113 420.573 263.39 420.885C263.667 421.196 263.823 421.618 263.823 422.059V493.454C263.823 493.894 263.667 494.317 263.39 494.628C263.113 494.94 262.737 495.114 262.345 495.114Z" fill="#CCCCCC"/>
<path d="M268.256 373.078C267.864 373.078 267.488 372.903 267.211 372.592C266.934 372.28 266.778 371.858 266.778 371.418V273.456C266.778 273.016 266.934 272.594 267.211 272.282C267.488 271.971 267.864 271.796 268.256 271.796C268.648 271.796 269.024 271.971 269.301 272.282C269.579 272.594 269.734 273.016 269.734 273.456V371.418C269.734 371.858 269.579 372.28 269.301 372.592C269.024 372.903 268.648 373.078 268.256 373.078Z" fill="#CCCCCC"/>
<path d="M449.454 581.534C451.569 579.544 448.71 571.794 443.068 564.224C437.426 556.654 431.138 552.13 429.022 554.12C426.907 556.11 429.766 563.86 435.408 571.43C441.05 579 447.338 583.523 449.454 581.534Z" fill="#2F2E41"/>
<path d="M435.58 572.925C441.139 554.192 432.127 533.944 415.451 527.7C398.776 521.456 380.752 531.58 375.193 550.313C369.635 569.045 378.647 589.293 395.322 595.538C411.998 601.782 430.022 591.658 435.58 572.925Z" fill="#2F2E41"/>
<path d="M418.858 589.679H409.189V609.139H418.858V589.679Z" fill="#2F2E41"/>
<path d="M399.52 589.679H389.851V609.139H399.52V589.679Z" fill="#2F2E41"/>
<path d="M410.801 612.76C415.251 612.76 418.858 611.24 418.858 609.366C418.858 607.491 415.251 605.971 410.801 605.971C406.351 605.971 402.743 607.491 402.743 609.366C402.743 611.24 406.351 612.76 410.801 612.76Z" fill="#2F2E41"/>
<path d="M391.463 612.307C395.913 612.307 399.52 610.788 399.52 608.913C399.52 607.039 395.913 605.519 391.463 605.519C387.013 605.519 383.405 607.039 383.405 608.913C383.405 610.788 387.013 612.307 391.463 612.307Z" fill="#2F2E41"/>
<path d="M395.393 516.675C398.235 503.818 410.78 496.252 423.412 499.776C436.045 503.3 443.982 516.579 441.14 529.436C438.298 542.293 428.87 542.335 416.237 538.811C403.605 535.287 392.552 529.532 395.393 516.675Z" fill="#FDE7E3"/>
<path d="M383.918 552.69C385.1 549.889 379.621 544.189 371.68 539.958C363.739 535.727 356.344 534.568 355.161 537.368C353.979 540.169 359.458 545.869 367.399 550.1C375.34 554.331 382.735 555.49 383.918 552.69Z" fill="#2F2E41"/>
<path d="M400.629 565.995C406.489 565.995 411.24 560.658 411.24 554.075C411.24 547.491 406.489 542.154 400.629 542.154C394.768 542.154 390.018 547.491 390.018 554.075C390.018 560.658 394.768 565.995 400.629 565.995Z" fill="white"/>
<path d="M396.267 553.775C398.221 553.775 399.804 551.996 399.804 549.802C399.804 547.607 398.221 545.828 396.267 545.828C394.314 545.828 392.73 547.607 392.73 549.802C392.73 551.996 394.314 553.775 396.267 553.775Z" fill="#3F3D56"/>
<path d="M400.538 583.944C402.986 583.944 404.972 581.714 404.972 578.963C404.972 576.212 402.986 573.982 400.538 573.982C398.089 573.982 396.104 576.212 396.104 578.963C396.104 581.714 398.089 583.944 400.538 583.944Z" fill="white"/>
<path d="M496.261 613H321.857C321.661 613 321.473 612.913 321.335 612.757C321.196 612.601 321.118 612.39 321.118 612.17C321.118 611.95 321.196 611.738 321.335 611.583C321.473 611.427 321.661 611.34 321.857 611.34H496.261C496.457 611.34 496.645 611.427 496.783 611.583C496.922 611.738 497 611.95 497 612.17C497 612.39 496.922 612.601 496.783 612.757C496.645 612.913 496.457 613 496.261 613Z" fill="#3F3D56"/>
</g>
<defs>
<clipPath id="clip0_515_553">
<rect width="497" height="613" fill="white"/>
</clipPath>
</defs>
</svg>
