<svg width="473" height="441" viewBox="0 0 473 441" fill="none" xmlns="http://www.w3.org/2000/svg">
<g clip-path="url(#clip0_515_553)">
<path d="M328.447 89.4693C295.659 85.0258 258.32 82.6547 219.434 82.6547C183.846 82.6547 149.559 84.6376 118.874 88.3763C118.881 87.9761 118.888 87.576 118.909 87.1758C119.723 63.9489 131.203 41.9134 150.896 25.7793C170.589 9.64517 196.932 0.692321 224.296 0.83428C251.66 0.976239 277.873 10.2017 297.332 26.539C316.792 42.8762 327.954 65.0291 328.433 88.2628C328.44 88.6689 328.447 89.0691 328.447 89.4693Z" fill="#E8B650"/>
<g opacity="0.1">
<path d="M237.404 0.801088C222.85 -0.868239 208.045 0.0778863 193.95 3.57814C179.854 7.0784 166.782 13.0547 155.581 21.1196C144.379 29.1846 135.298 39.1583 128.926 50.3943C122.554 61.6303 119.033 73.8779 118.592 86.3433C118.571 86.7434 118.564 87.1436 118.557 87.5437C127.673 86.433 137.114 85.4812 146.806 84.6864C147.991 63.9196 157.701 44.1605 174.249 28.8378C190.798 13.5151 213.142 3.59577 237.404 0.801088Z" fill="white"/>
</g>
<path d="M374.289 96.5287C359.196 93.0541 343.887 90.2946 328.433 88.2628C303.104 84.9297 277.568 82.8458 251.955 82.0216C241.285 81.6513 230.419 81.4602 219.434 81.4602C210.727 81.4602 202.09 81.5797 193.573 81.8186C168.588 82.4454 143.663 84.2338 118.909 87.1758C100.585 89.3185 82.4383 92.4423 64.5781 96.5287C22.9349 106.306 0 119.409 0 133.42C0 147.432 22.9349 160.535 64.5781 170.312C93.8641 177.192 129.972 181.881 169.316 184.031C185.555 184.926 202.343 185.38 219.434 185.38C236.58 185.38 253.425 184.92 269.714 184.025C305.519 182.06 338.645 177.992 366.37 172.08C366.517 172.044 366.658 172.014 366.806 171.984C368.677 171.59 370.519 171.178 372.341 170.766C372.995 170.611 373.642 170.461 374.289 170.312C374.325 170.299 374.363 170.289 374.401 170.282C375.021 170.139 375.632 169.989 376.244 169.846C377.468 169.547 378.678 169.255 379.866 168.95C379.922 168.938 379.972 168.926 380.021 168.914C381.055 168.652 382.068 168.389 383.073 168.126C383.896 167.905 384.712 167.69 385.521 167.469C386.112 167.308 386.696 167.147 387.272 166.985C387.694 166.866 388.109 166.752 388.517 166.633C389.073 166.478 389.628 166.316 390.177 166.155C390.409 166.089 390.641 166.024 390.866 165.952C391.394 165.803 391.907 165.647 392.42 165.492C392.976 165.325 393.532 165.152 394.08 164.985C394.538 164.847 394.995 164.704 395.444 164.561C395.824 164.435 396.197 164.316 396.577 164.196C397.611 163.868 398.624 163.527 399.622 163.193C400.122 163.02 400.621 162.852 401.113 162.679C401.598 162.512 402.091 162.339 402.569 162.166C403.357 161.885 404.13 161.604 404.89 161.323C405.256 161.18 405.629 161.043 405.987 160.911C406.262 160.804 406.529 160.702 406.803 160.595C407 160.523 407.197 160.446 407.387 160.368C408.097 160.093 408.801 159.812 409.49 159.532C412.134 158.457 414.603 157.358 416.896 156.235C431.278 149.241 438.867 141.483 438.867 133.42C438.867 119.409 415.932 106.306 374.289 96.5287ZM373.909 169.165C344.588 176.051 308.382 180.74 268.933 182.872C252.89 183.738 236.306 184.186 219.434 184.186C202.617 184.186 186.089 183.744 170.096 182.878C130.584 180.752 94.3212 176.063 64.9579 169.165C23.9758 159.538 1.40663 146.846 1.40663 133.42C1.40892 132.234 1.58378 131.052 1.92724 129.903C5.51386 117.79 27.5769 106.455 64.9579 97.6754C82.6831 93.6209 100.691 90.5151 118.874 88.3763C143.777 85.4176 168.853 83.6232 193.988 83.0011C202.371 82.7682 210.853 82.6527 219.434 82.6547C230.272 82.6547 240.99 82.8399 251.526 83.1982C277.288 84.015 302.972 86.1089 328.447 89.4692C343.767 91.492 358.945 94.2315 373.909 97.6754C411.283 106.455 433.339 117.784 436.933 129.891C437.282 131.044 437.459 132.23 437.461 133.42C437.461 146.846 414.891 159.538 373.909 169.165Z" fill="#3F3D56"/>
<path d="M438.466 133.964C438.466 141.943 430.723 149.492 416.896 156.235C414.596 157.358 412.12 158.457 409.49 159.532C408.801 159.812 408.097 160.093 407.387 160.368C407.197 160.446 407 160.523 406.803 160.595C406.529 160.702 406.262 160.804 405.987 160.911C405.629 161.043 405.256 161.18 404.89 161.323C404.13 161.604 403.357 161.885 402.569 162.166C402.091 162.339 401.598 162.512 401.113 162.679C400.621 162.852 400.122 163.02 399.622 163.193C398.624 163.527 397.611 163.868 396.577 164.196C396.197 164.316 395.824 164.435 395.444 164.56C394.995 164.704 394.538 164.847 394.08 164.985C393.532 165.152 392.976 165.325 392.42 165.492C391.907 165.647 391.394 165.803 390.866 165.952C390.641 166.024 390.409 166.089 390.177 166.155C389.628 166.316 389.073 166.478 388.517 166.633C388.109 166.752 387.694 166.866 387.272 166.985C386.695 167.147 386.112 167.308 385.521 167.469C384.712 167.69 383.896 167.905 383.073 168.126C382.068 168.389 381.055 168.652 380.021 168.914C379.972 168.926 379.923 168.938 379.866 168.95C378.678 169.255 377.468 169.547 376.244 169.846C375.632 169.989 375.021 170.139 374.401 170.282C374.363 170.289 374.326 170.299 374.289 170.312C373.642 170.461 372.995 170.611 372.341 170.766C370.526 171.172 368.677 171.584 366.806 171.984C366.658 172.014 366.517 172.044 366.37 172.08C339.398 177.801 306.307 181.97 269.685 183.983C253.643 184.861 236.918 185.327 219.736 185.327C202.4 185.327 185.534 184.855 169.365 183.959C72.842 178.614 1.00586 158.26 1.00586 133.964C1.01346 132.485 1.27882 131.016 1.79331 129.604C1.83555 129.705 1.87778 129.801 1.92724 129.903C11.9632 152.287 83.188 170.378 175.603 174.791C189.761 175.472 204.425 175.824 219.434 175.824C234.506 175.824 249.226 175.466 263.44 174.785C355.778 170.354 426.932 152.257 436.933 129.891C437.102 129.532 437.25 129.174 437.376 128.816C438.089 130.465 438.458 132.207 438.466 133.964Z" fill="#3F3D56"/>
<path d="M64.4724 127.535C52.7673 127.535 40.3271 125.397 40.3271 121.433C40.3271 117.47 52.7674 115.331 64.4724 115.331C76.1774 115.331 88.6176 117.47 88.6176 121.433C88.6176 125.397 76.1774 127.535 64.4724 127.535ZM64.4724 116.526C51.0721 116.526 41.7338 119.112 41.7338 121.433C41.7338 123.754 51.0722 126.341 64.4724 126.341C77.8726 126.341 87.2109 123.754 87.2109 121.433C87.2109 119.112 77.8726 116.526 64.4724 116.526Z" fill="#3F3D56"/>
<path d="M114.407 155.605C102.702 155.605 90.2622 153.467 90.2622 149.504C90.2622 145.54 102.702 143.402 114.407 143.402C126.112 143.402 138.553 145.54 138.553 149.504C138.553 153.467 126.112 155.605 114.407 155.605ZM114.407 144.596C101.007 144.596 91.6688 147.183 91.6688 149.504C91.6688 151.825 101.007 154.411 114.407 154.411C127.807 154.411 137.146 151.825 137.146 149.504C137.146 147.183 127.808 144.596 114.407 144.596Z" fill="#3F3D56"/>
<path d="M373.93 127.535C362.225 127.535 349.785 125.397 349.785 121.433C349.785 117.47 362.225 115.331 373.93 115.331C385.635 115.331 398.075 117.47 398.075 121.433C398.075 125.397 385.635 127.535 373.93 127.535ZM373.93 116.526C360.53 116.526 351.191 119.112 351.191 121.433C351.191 123.754 360.53 126.341 373.93 126.341C387.33 126.341 396.668 123.754 396.668 121.433C396.668 119.112 387.33 116.526 373.93 116.526Z" fill="#3F3D56"/>
<path d="M323.995 155.605C312.29 155.605 299.85 153.467 299.85 149.504C299.85 145.54 312.29 143.402 323.995 143.402C335.7 143.402 348.14 145.54 348.14 149.504C348.14 153.467 335.7 155.605 323.995 155.605ZM323.995 144.596C310.595 144.596 301.256 147.183 301.256 149.504C301.256 151.825 310.595 154.411 323.995 154.411C337.395 154.411 346.733 151.825 346.733 149.504C346.733 147.183 337.395 144.596 323.995 144.596Z" fill="#3F3D56"/>
<path d="M219.201 168.745C207.496 168.745 195.056 166.606 195.056 162.643C195.056 158.679 207.496 156.541 219.201 156.541C230.906 156.541 243.346 158.679 243.346 162.643C243.346 166.606 230.906 168.745 219.201 168.745ZM219.201 157.735C205.801 157.735 196.462 160.322 196.462 162.643C196.462 164.964 205.801 167.55 219.201 167.55C232.601 167.55 241.939 164.964 241.939 162.643C241.939 160.322 232.601 157.735 219.201 157.735Z" fill="#3F3D56"/>
<path d="M237.001 294.271C253.32 294.271 266.549 283.037 266.549 269.18C266.549 255.322 253.32 244.088 237.001 244.088C220.682 244.088 207.453 255.322 207.453 269.18C207.453 283.037 220.682 294.271 237.001 294.271Z" fill="#2F2E41"/>
<path d="M225.765 285.665L211.384 291.78L215.404 298.596L229.784 292.481L225.765 285.665Z" fill="#2F2E41"/>
<path d="M217.3 297.904C218.152 296.806 216.048 294.35 212.599 292.419C209.149 290.488 205.662 289.813 204.809 290.911C203.956 292.009 206.061 294.465 209.51 296.397C212.959 298.328 216.447 299.003 217.3 297.904Z" fill="#2F2E41"/>
<path d="M248.237 285.665L244.217 292.481L258.598 298.596L262.617 291.78L248.237 285.665Z" fill="#2F2E41"/>
<path d="M264.491 296.396C267.94 294.465 270.045 292.009 269.192 290.911C268.339 289.813 264.852 290.488 261.403 292.419C257.954 294.35 255.849 296.806 256.702 297.904C257.555 299.003 261.042 298.328 264.491 296.396Z" fill="#2F2E41"/>
<path d="M234.932 271.618C240.509 271.618 245.031 267.778 245.031 263.042C245.031 258.306 240.509 254.466 234.932 254.466C229.355 254.466 224.833 258.306 224.833 263.042C224.833 267.778 229.355 271.618 234.932 271.618Z" fill="white"/>
<path d="M237.389 261.398C238.698 260.286 238.69 258.478 237.372 257.358C236.054 256.238 233.924 256.232 232.614 257.344C231.305 258.455 231.313 260.264 232.631 261.384C233.95 262.503 236.08 262.51 237.389 261.398Z" fill="#3F3D56"/>
<path d="M260.31 241.883C260.754 232.593 251.326 224.725 239.252 224.309C227.178 223.892 217.03 231.085 216.585 240.374C216.141 249.664 224.534 251.774 236.608 252.191C248.682 252.607 259.865 251.172 260.31 241.883Z" fill="#E8B650"/>
<path d="M277.342 282.318C279.285 280.902 276.553 275.491 271.238 270.234C265.923 264.976 260.039 261.863 258.095 263.28C256.152 264.697 258.885 270.107 264.199 275.365C269.514 280.622 275.398 283.735 277.342 282.318Z" fill="#2F2E41"/>
<path d="M209.885 275.365C215.199 270.107 217.932 264.697 215.989 263.28C214.045 261.863 208.161 264.976 202.846 270.234C197.532 275.491 194.799 280.901 196.742 282.318C198.686 283.735 204.57 280.622 209.885 275.365Z" fill="#2F2E41"/>
<path d="M245.116 279.068C245.436 280.56 245.045 282.098 244.029 283.345C243.013 284.592 241.455 285.445 239.698 285.716C237.942 285.988 236.13 285.656 234.662 284.793C233.193 283.93 232.189 282.607 231.869 281.116L231.867 281.105C231.204 277.998 234.033 276.898 237.692 276.336C241.351 275.773 244.454 275.961 245.116 279.068Z" fill="white"/>
<path d="M187.081 295.87C186.708 295.87 186.351 295.744 186.087 295.52C185.823 295.296 185.675 294.992 185.675 294.676V224.201C185.675 223.884 185.823 223.58 186.087 223.356C186.351 223.132 186.708 223.007 187.081 223.007C187.454 223.007 187.812 223.132 188.076 223.356C188.34 223.58 188.488 223.884 188.488 224.201V294.676C188.488 294.992 188.34 295.296 188.076 295.52C187.812 295.744 187.454 295.87 187.081 295.87Z" fill="#CCCCCC"/>
<path d="M165.982 359.178C165.609 359.178 165.251 359.052 164.987 358.828C164.723 358.604 164.575 358.3 164.575 357.983V306.621C164.575 306.304 164.723 306 164.987 305.776C165.251 305.552 165.609 305.426 165.982 305.426C166.355 305.426 166.713 305.552 166.976 305.776C167.24 306 167.388 306.304 167.388 306.621V357.983C167.388 358.3 167.24 358.604 166.976 358.828C166.713 359.052 166.355 359.178 165.982 359.178Z" fill="#CCCCCC"/>
<path d="M220.137 316.774C219.764 316.774 219.406 316.648 219.142 316.424C218.879 316.2 218.73 315.896 218.73 315.579V245.105C218.73 244.788 218.879 244.484 219.142 244.26C219.406 244.036 219.764 243.91 220.137 243.91C220.51 243.91 220.868 244.036 221.132 244.26C221.396 244.484 221.544 244.788 221.544 245.105V315.579C221.544 315.896 221.395 316.2 221.132 316.424C220.868 316.648 220.51 316.774 220.137 316.774Z" fill="#CCCCCC"/>
<path d="M199.741 367.539C199.368 367.539 199.01 367.413 198.746 367.189C198.482 366.965 198.334 366.662 198.334 366.345V337.677C198.334 337.36 198.482 337.056 198.746 336.832C199.01 336.608 199.368 336.483 199.741 336.483C200.114 336.483 200.471 336.608 200.735 336.832C200.999 337.056 201.147 337.36 201.147 337.677V366.345C201.147 366.662 200.999 366.965 200.735 367.189C200.471 367.413 200.114 367.539 199.741 367.539Z" fill="#CCCCCC"/>
<path d="M228.577 220.618C228.203 220.618 227.846 220.492 227.582 220.268C227.318 220.044 227.17 219.74 227.17 219.423V190.756C227.17 190.439 227.318 190.135 227.582 189.911C227.846 189.687 228.203 189.561 228.577 189.561C228.95 189.561 229.307 189.687 229.571 189.911C229.835 190.135 229.983 190.439 229.983 190.756V219.423C229.983 219.74 229.835 220.044 229.571 220.268C229.307 220.492 228.95 220.618 228.577 220.618Z" fill="#CCCCCC"/>
<path d="M158.245 233.16C157.872 233.16 157.515 233.034 157.251 232.81C156.987 232.586 156.839 232.282 156.839 231.965V203.298C156.839 202.981 156.987 202.677 157.251 202.453C157.515 202.229 157.872 202.103 158.245 202.103C158.619 202.103 158.976 202.229 159.24 202.453C159.504 202.677 159.652 202.981 159.652 203.298V231.965C159.652 232.282 159.504 232.586 159.24 232.81C158.976 233.034 158.619 233.16 158.245 233.16Z" fill="#CCCCCC"/>
<path d="M280.622 236.146C280.249 236.146 279.891 236.02 279.627 235.796C279.364 235.572 279.215 235.268 279.215 234.951V206.284C279.215 205.967 279.364 205.663 279.627 205.439C279.891 205.215 280.249 205.089 280.622 205.089C280.995 205.089 281.353 205.215 281.617 205.439C281.88 205.663 282.029 205.967 282.029 206.284V234.951C282.029 235.268 281.88 235.572 281.617 235.796C281.353 236.02 280.995 236.146 280.622 236.146Z" fill="#CCCCCC"/>
<path d="M277.808 325.732C277.435 325.732 277.078 325.606 276.814 325.382C276.55 325.158 276.402 324.855 276.402 324.538V289.898C276.402 289.581 276.55 289.277 276.814 289.053C277.078 288.829 277.435 288.703 277.808 288.703C278.182 288.703 278.539 288.829 278.803 289.053C279.067 289.277 279.215 289.581 279.215 289.898V324.538C279.215 324.855 279.067 325.158 278.803 325.382C278.539 325.606 278.182 325.732 277.808 325.732Z" fill="#CCCCCC"/>
<path d="M249.676 356.192C249.303 356.192 248.945 356.066 248.682 355.842C248.418 355.618 248.27 355.314 248.27 354.997V303.634C248.27 303.318 248.418 303.014 248.681 302.79C248.945 302.566 249.303 302.44 249.676 302.44C250.049 302.44 250.407 302.566 250.671 302.79C250.935 303.014 251.083 303.318 251.083 303.634V354.997C251.083 355.314 250.935 355.618 250.671 355.842C250.407 356.066 250.049 356.192 249.676 356.192Z" fill="#CCCCCC"/>
<path d="M255.303 268.397C254.93 268.397 254.572 268.271 254.308 268.047C254.044 267.823 253.896 267.519 253.896 267.203V196.728C253.896 196.411 254.044 196.107 254.308 195.883C254.572 195.659 254.93 195.533 255.303 195.533C255.676 195.533 256.033 195.659 256.297 195.883C256.561 196.107 256.709 196.411 256.709 196.728V267.203C256.709 267.519 256.561 267.823 256.297 268.047C256.033 268.271 255.676 268.397 255.303 268.397Z" fill="#CCCCCC"/>
<path d="M427.75 418.363C429.763 416.931 427.043 411.356 421.673 405.91C416.303 400.464 410.318 397.21 408.305 398.641C406.292 400.072 409.013 405.648 414.382 411.094C419.752 416.54 425.737 419.794 427.75 418.363Z" fill="#2F2E41"/>
<path d="M414.546 412.17C419.836 398.693 411.26 384.126 395.389 379.634C379.519 375.142 362.366 382.425 357.076 395.902C351.785 409.379 360.362 423.945 376.232 428.437C392.103 432.93 409.256 425.646 414.546 412.17Z" fill="#2F2E41"/>
<path d="M398.632 424.222H389.43V438.223H398.632V424.222Z" fill="#2F2E41"/>
<path d="M380.227 424.222H371.025V438.223H380.227V424.222Z" fill="#2F2E41"/>
<path d="M390.963 440.827C395.198 440.827 398.632 439.734 398.632 438.385C398.632 437.037 395.198 435.943 390.963 435.943C386.728 435.943 383.295 437.037 383.295 438.385C383.295 439.734 386.728 440.827 390.963 440.827Z" fill="#2F2E41"/>
<path d="M372.559 440.502C376.794 440.502 380.227 439.408 380.227 438.06C380.227 436.711 376.794 435.618 372.559 435.618C368.324 435.618 364.891 436.711 364.891 438.06C364.891 439.408 368.324 440.502 372.559 440.502Z" fill="#2F2E41"/>
<path d="M376.3 371.703C379.005 362.453 390.943 357.01 402.966 359.545C414.988 362.08 422.542 371.634 419.837 380.883C417.133 390.133 408.16 390.162 396.137 387.627C384.115 385.092 373.595 380.952 376.3 371.703Z" fill="#E8B650" fill-opacity="0.4"/>
<path d="M365.378 397.612C366.504 395.597 361.289 391.497 353.732 388.453C346.174 385.409 339.136 384.575 338.011 386.589C336.885 388.604 342.1 392.705 349.657 395.749C357.214 398.792 364.253 399.627 365.378 397.612Z" fill="#2F2E41"/>
<path d="M381.283 407.184C386.86 407.184 391.381 403.344 391.381 398.608C391.381 393.872 386.86 390.033 381.283 390.033C375.705 390.033 371.184 393.872 371.184 398.608C371.184 403.344 375.705 407.184 381.283 407.184Z" fill="white"/>
<path d="M377.132 398.393C378.991 398.393 380.498 397.113 380.498 395.534C380.498 393.956 378.991 392.676 377.132 392.676C375.273 392.676 373.766 393.956 373.766 395.534C373.766 397.113 375.273 398.393 377.132 398.393Z" fill="#3F3D56"/>
<path d="M381.195 420.097C383.526 420.097 385.415 418.492 385.415 416.513C385.415 414.534 383.526 412.93 381.195 412.93C378.865 412.93 376.976 414.534 376.976 416.513C376.976 418.492 378.865 420.097 381.195 420.097Z" fill="white"/>
<path d="M472.296 441H306.315C306.128 441 305.949 440.937 305.817 440.825C305.685 440.713 305.611 440.561 305.611 440.403C305.611 440.244 305.685 440.092 305.817 439.98C305.949 439.868 306.128 439.806 306.315 439.806H472.296C472.483 439.806 472.662 439.868 472.794 439.98C472.926 440.092 473 440.244 473 440.403C473 440.561 472.926 440.713 472.794 440.825C472.662 440.937 472.483 441 472.296 441Z" fill="#3F3D56"/>
</g>
<defs>
<clipPath id="clip0_515_553">
<rect width="473" height="441" fill="white"/>
</clipPath>
</defs>
</svg>
